<?xml version="1.0" encoding="UTF-8" standalone="no"?>
<!-- Created with Inkscape (http://www.inkscape.org/) -->
<svg xmlns:dc="http://purl.org/dc/elements/1.1/" xmlns:cc="http://creativecommons.org/ns#" xmlns:rdf="http://www.w3.org/1999/02/22-rdf-syntax-ns#" xmlns:svg="http://www.w3.org/2000/svg" xmlns="http://www.w3.org/2000/svg" xmlns:xlink="http://www.w3.org/1999/xlink" xmlns:sodipodi="http://sodipodi.sourceforge.net/DTD/sodipodi-0.dtd" xmlns:inkscape="http://www.inkscape.org/namespaces/inkscape" width="936.90625" height="768.21875" id="svg2" version="1.1" inkscape:version="0.48.3.1 r9886" sodipodi:docname="dibujo-27.svg">
  <defs id="defs4">
    <linearGradient inkscape:collect="always" id="linearGradient3867">
      <stop style="stop-color:#000000;stop-opacity:1;" offset="0" id="stop3869"/>
      <stop style="stop-color:#000000;stop-opacity:0;" offset="1" id="stop3871"/>
    </linearGradient>
    <linearGradient inkscape:collect="always" xlink:href="#linearGradient3867" id="linearGradient3893" x1="81.709175" y1="304.72842" x2="60.02494" y2="332.69778" gradientUnits="userSpaceOnUse"/>
    <linearGradient inkscape:collect="always" xlink:href="#linearGradient3867" id="linearGradient3914" gradientUnits="userSpaceOnUse" x1="81.709175" y1="304.72842" x2="60.02494" y2="332.69778"/>
    <linearGradient inkscape:collect="always" xlink:href="#linearGradient3867" id="linearGradient4157" gradientUnits="userSpaceOnUse" x1="81.709175" y1="304.72842" x2="60.02494" y2="332.69778"/>
    <linearGradient inkscape:collect="always" xlink:href="#linearGradient3867" id="linearGradient4159" gradientUnits="userSpaceOnUse" x1="81.709175" y1="304.72842" x2="60.02494" y2="332.69778"/>
  </defs>
  <sodipodi:namedview id="base" pagecolor="#ffffff" bordercolor="#666666" borderopacity="1.0" inkscape:pageopacity="0.0" inkscape:pageshadow="2" inkscape:zoom="0.49497475" inkscape:cx="548.07838" inkscape:cy="403.41862" inkscape:document-units="px" inkscape:current-layer="layer2" showgrid="false" inkscape:window-width="1360" inkscape:window-height="768" inkscape:window-x="0" inkscape:window-y="0" inkscape:window-maximized="0" fit-margin-top="0" fit-margin-left="0" fit-margin-right="0" fit-margin-bottom="0"/>
  <g inkscape:groupmode="layer" id="layer2" inkscape:label="Capa" style="display:inline" transform="translate(108.6875,7.75)">
    <path style="fill:none;stroke:#000000;stroke-width:1px;stroke-linecap:butt;stroke-linejoin:miter;stroke-opacity:1" d="M 35.355339,555.36713 C -32.348599,567.27556 -111.51062,540.76029 -176.7767,559.40774" id="path4170" inkscape:connector-curvature="0"/>
    <path style="fill:none;stroke:#000000;stroke-width:1px;stroke-linecap:butt;stroke-linejoin:miter;stroke-opacity:1" d="m 66.670068,523.04225 c -93.80389,8.63961 -154.663622,-37.74912 -232.335088,-63.63961" id="path4178" inkscape:connector-curvature="0"/>
    <g id="g3991">
      <g style="stroke:#000000;stroke-opacity:1" id="g3946" transform="matrix(-1.2361056,0,0,1.0783295,652.46093,10.902265)">
        <path inkscape:connector-curvature="0" id="path3949" d="m 444.97219,60.897465 c 19.13878,-15.548181 42.08321,-28.608026 53.53809,-51.5177791 11.78269,-23.5653839 76.23308,-29.4281679 82.83251,-3.0304576 4.65967,18.6386757 8.76135,140.6536917 0.50507,153.0381117 -4.76989,7.15483 -10.97625,49.97145 -9.09137,56.56854" style="fill:#ececec;fill-opacity:1;stroke:#000000;stroke-width:1px;stroke-linecap:butt;stroke-linejoin:miter;stroke-opacity:1"/>
        <path inkscape:connector-curvature="0" id="path3951" d="M 560.63466,-4.7624496 C 552.61414,3.5115543 541.93688,10.22812 531.84531,16.95583 c -9.11535,6.076899 -39.90102,25.612633 -39.90102,37.88072 0,5.610708 -2.41767,23.937264 9.09137,18.182746 6.8902,-3.4451 42.04868,-52.150207 52.52793,-62.629458 1.75961,-1.759609 22.72843,-16.2239621 22.72843,-4.5456859 0,6.3039059 -10.81457,-6.57093954 -15.65736,-10.6066017 z" style="fill:#000000;stroke:#000000;stroke-width:1px;stroke-linecap:butt;stroke-linejoin:miter;stroke-opacity:1"/>
        <path sodipodi:nodetypes="ccccccccccccsccccccc" inkscape:connector-curvature="0" id="path3953" d="m 558.8916,11.13376 51.17655,4.02057 -57.74917,5.023807 47.59734,10.304287 -48.47207,5.842366 59.41841,-0.256853 -61.96237,11.636556 48.15908,5.184224 -60.0604,10.649458 58.98503,2.784684 -65.18046,10.087706 57.69299,1.845737 c 0,0 -65.10824,14.878728 -62.70068,15.641121 2.40755,0.762391 56.22437,-0.208703 56.22437,-0.208703 l -55.5021,16.33127 76.91329,-5.31272 -67.96522,5.4973 46.40158,15.75338 -56.44908,-4.10082 C 547.81742,90.359629 571.86163,59.654094 558.8916,11.13376 z" style="fill:#ffffff;stroke:none"/>
      </g>
      <g style="stroke:#000000;stroke-opacity:1" transform="matrix(1.2361056,0,0,1.0783295,-125.65664,8.0451225)" id="g3941">
        <path style="fill:#ececec;fill-opacity:1;stroke:#000000;stroke-width:1px;stroke-linecap:butt;stroke-linejoin:miter;stroke-opacity:1" d="m 444.97219,60.897465 c 19.13878,-15.548181 42.08321,-28.608026 53.53809,-51.5177791 11.78269,-23.5653839 76.23308,-29.4281679 82.83251,-3.0304576 4.65967,18.6386757 8.76135,140.6536917 0.50507,153.0381117 -4.76989,7.15483 -10.97625,49.97145 -9.09137,56.56854" id="path3935" inkscape:connector-curvature="0"/>
        <path style="fill:#000000;stroke:#000000;stroke-width:1px;stroke-linecap:butt;stroke-linejoin:miter;stroke-opacity:1" d="M 560.63466,-4.7624496 C 552.61414,3.5115543 541.93688,10.22812 531.84531,16.95583 c -9.11535,6.076899 -39.90102,25.612633 -39.90102,37.88072 0,5.610708 -2.41767,23.937264 9.09137,18.182746 6.8902,-3.4451 42.04868,-52.150207 52.52793,-62.629458 1.75961,-1.759609 22.72843,-16.2239621 22.72843,-4.5456859 0,6.3039059 -10.81457,-6.57093954 -15.65736,-10.6066017 z" id="path3937" inkscape:connector-curvature="0"/>
        <path style="fill:#ffffff;stroke:none" d="m 558.8916,11.13376 51.17655,4.02057 -57.74917,5.023807 47.59734,10.304287 -48.47207,5.842366 59.41841,-0.256853 -61.96237,11.636556 48.15908,5.184224 -60.0604,10.649458 58.98503,2.784684 -65.18046,10.087706 57.69299,1.845737 c 0,0 -65.10824,14.878728 -62.70068,15.641121 2.40755,0.762391 56.22437,-0.208703 56.22437,-0.208703 l -55.5021,16.33127 76.91329,-5.31272 -67.96522,5.4973 46.40158,15.75338 -56.44908,-4.10082 C 547.81742,90.359629 571.86163,59.654094 558.8916,11.13376 z" id="path3939" inkscape:connector-curvature="0" sodipodi:nodetypes="ccccccccccccsccccccc"/>
      </g>
      <path inkscape:connector-curvature="0" id="path3133" d="m 268.6875,-6.28125 -2,40.40625 -34.34375,-35.34375 3.03125,40.40625 -33.34375,-37.375 1,48.46875 -32.3125,-44.4375 3.03125,36.375 L 132.34375,14.9375 154.5625,43.21875 100,28.0625 l 29.3125,23.25 -45.46875,-6.0625 19.1875,31.3125 -68.6875,-20.21875 49.5,32.34375 -60.625,-1.03125 c 0,0 46.488263,18.1875 41.4375,18.1875 -5.050763,0 -53.53125,4.03125 -53.53125,4.03125 l 66.65625,29.3125 c 0,0 -72.8650219,-8.56859 -91.09375,-11.28125 15.6505982,4.86946 64.84375,29.46875 64.84375,29.46875 0,0 -83.863262,-8.1039 -78.8125,-7.09375 5.050763,1.01015 86.873415,34.375 80.8125,34.375 -6.060915,0 -69.6875,-14.15625 -69.6875,-14.15625 l -33.34375,8.09375 18.1875,13.125 -41.40625,12.125 32.3125,11.09375 -28.28125,9.09375 12.125,10.09375 c 0,0 -42.44686,4.05235 -38.40625,5.0625 4.04061,1.01016 42.4375,15.15625 42.4375,15.15625 0,0 -43.44686,14.13595 -39.40625,16.15625 4.040611,2.02031 37.375,8.09375 37.375,8.09375 l -31.3125,7.0625 c 0,0 32.32186,8.09375 28.28125,8.09375 -4.04061,0 -32.3125,1 -32.3125,1 l 25.25,16.15625 -37.375,4.03125 c 0,0 37.394513,14.1461 32.34375,15.15625 -5.050762,1.01016 -38.40625,7.09375 -38.40625,7.09375 l 35.375,11.09375 L -107.0625,363.4375 -72.71875,370.5 -98,381.625 l 18.1875,8.0625 -27.25,19.21875 c 0,0 54.519513,-1.01015 49.46875,0 -5.050763,1.01015 -47.46875,25.25 -47.46875,25.25 l 53.53125,-1.03125 -36.34375,15.15625 45.4375,6.0625 L -75.75,468.5 l 29.28125,11.09375 -28.28125,12.125 26.25,18.1875 -24.21875,14.15625 c 0,0 30.254913,2.05491 37.78125,2.1875 -5.62591,2.04814 -15.5625,17 -15.5625,17 l 37.375,12.125 -24.25,20.1875 L 2.03125,568.5 -18.1875,596.78125 16.15625,587.6875 1,608.90625 l 13.15625,11.125 -28.3125,20.1875 36.375,0 -35.34375,21.21875 52.53125,1 -55.5625,26.28125 45.4375,-9.09375 -36.34375,28.28125 46.46875,-6.0625 -41.4375,19.1875 L 52.53125,718 22.21875,733.15625 62.625,715.96875 53.53125,742.25 l 51.53125,-29.3125 -12.125,31.34375 18.1875,-34.375 26.25,32.34375 2.03125,-29.3125 L 172.75,744.28125 176.78125,717 l 37.375,29.28125 -1,-21.21875 46.4375,21.21875 L 237.375,718 l 55.5625,28.28125 -10.09375,-26.25 56.5625,20.1875 -26.25,-23.21875 31.40625,15.40625 6.15625,17.09375 12.75,-7.84375 1.1875,0.59375 -0.4375,-1.0625 32.9375,-20.25 7.84375,29.28125 35.71875,-29.28125 20,32.84375 22.84375,-30.71875 35.71875,25.71875 L 540,697.375 l 14.28125,61.40625 12.875,-33.5625 15.6875,32.15625 0.71875,-36.4375 29.28125,22.84375 -0.6875,-13.5625 33.5625,12.15625 2.84375,-12.15625 25,27.15625 -0.71875,-25.71875 7.875,16.40625 26.4375,-17.84375 -1.4375,28.5625 15.71875,-30.71875 18.5625,30 -7.15625,-27.84375 35,20.71875 -22.125,-18.5625 52.84375,12.125 -41.40625,-12.84375 52.125,-5 -41.4375,-18.59375 45,0 -34.28125,-14.28125 33.59375,-2.125 L 779.28125,679.5 815,672.375 l -23.5625,-0.71875 20,-13.59375 L 775,657.375 l 35.71875,-10.71875 -31.4375,-4.28125 35,-12.875 -25,-0.71875 23.5625,-13.5625 -33.5625,3.5625 47.15625,-20 L 792.84375,593.0625 820,586.65625 789.28125,582.375 l 17.15625,-15.71875 -52.15625,18.5625 52.15625,-27.84375 -27.875,0 16.4375,-15 -32.84375,2.84375 25,-22.84375 -44.3125,1.40625 L 770,513.0625 l -38.5625,5 14.28125,-12.84375 -34.28125,-5.71875 27.125,-7.84375 -66.40625,-13.59375 62.84375,0 -50,-19.28125 30.71875,0 -45.71875,-25 38.5625,13.59375 -49.28125,-40.71875 35,0.71875 -42.125,-11.4375 35,-11.4375 -35.71875,1.4375 24.28125,-22.875 -31.4375,1.4375 31.4375,-27.125 -37.875,7.125 8.59375,-17.84375 -22.875,3.5625 L 640,301.65625 621.4375,309.5 l 12.84375,-18.5625 -25.71875,5.71875 13.59375,-18.59375 -10.71875,4.3125 7.125,-16.4375 -18.5625,4.28125 11.4375,-22.15625 -17.15625,2.875 -1.4375,-42.875 -22.46875,2.0625 14.5,-26.5 -37.375,13.125 30.3125,-39.375 -60.625,8.0625 28.28125,-36.34375 -56.5625,1 24.25,-40.40625 -60.59375,21.21875 20.1875,-47.46875 -25.25,24.21875 18.1875,-51.5 -24.25,23.21875 12.125,-32.3125 -26.28125,39.40625 -11.09375,-41.4375 -16.15625,31.3125 0,-32.3125 L 360.625,44.21875 336.375,-3.25 333.34375,30.09375 297,-1.21875 l -1.03125,33.3125 -27.28125,-38.375 z m -282,134.1875 c -1.718852,-0.5348 -3.075296,-0.84375 -3.875,-0.84375 -1.27456,0 0.461637,0.3358 3.875,0.84375 z" style="fill:#f2f2f2;fill-opacity:1;stroke:#000000;stroke-width:1px;stroke-linecap:butt;stroke-linejoin:miter;stroke-opacity:1"/>
      <path inkscape:connector-curvature="0" id="path4168" d="m 528.57143,268.07647 -12.85714,15.71428 28.57142,-1.42857 -7.14285,11.42857 28.57143,7.14286 -11.42858,12.85714 22.85715,8.57143 -41.42857,25.71429 41.42857,4.28571 -40,30 34.28571,5.71429 -50,17.14286 50,20 -47.14286,5.71428 25.71429,28.57143 -47.14286,-7.14286 30,30 -57.14285,11.42857 30,14.28572 -54.28572,0 L 480,542.36218 418.57143,523.79075 430,566.6479 l -54.28571,-12.85715 20,22.85715 -42.85715,-11.42857 22.85715,34.28571 -52.85715,-4.28571 24.28572,28.57142 -48.57143,8.57143 34.28571,7.14286 -45.71428,42.85714 25.71428,0 -21.42857,25.71429 41.42857,-8.57143 -1.42857,22.85714 17.14286,-22.85714 38.57143,-10 -8.57143,-37.14286 37.14286,12.85715 -10,-34.28572 55.71428,12.85714 -30,-41.42857 47.14286,11.42857 -5.71429,-27.14285 48.57143,14.28571 L 500,555.21933 l 45.71429,11.42857 1.42857,-28.57143 50,10 c 0,0 -47.14286,-50 -31.42857,-48.57143 C 581.42857,500.93361 620,496.6479 620,496.6479 l -17.14286,-51.42857 38.57143,-2.85715 -38.57143,-38.57143 44.28572,-8.57142 -38.57143,-8.57143 30,-34.28572 L 600,350.93361 l 27.14286,-34.28571 -40,-7.14286 L 610,283.79075 l -32.85714,-4.28571 18.57143,-32.85714 -44.28572,4.28571 27.14286,-25.71428 -30,-5.71429 20,-30 -37.14286,12.85714 -14.28571,25.71429 17.14285,0 -20,21.42857 27.14286,0 z" style="fill:#cccccc;fill-opacity:1;stroke:none"/>
      <path sodipodi:nodetypes="cccccccccccccccccccccscscccsccccccccccccccccccccccscccccccccccccccccccccccccccccccccccccsccscccccsccccccccccccccccccccccscccccccccccccc" inkscape:connector-curvature="0" id="path3948" d="m 256.42857,538.79075 32.14286,-4.28571 50,-14.28572 -15.71429,-7.14285 29.28572,0 -18.57143,-7.85715 27.14286,0 -14.28572,-19.28571 20,0.71429 -18.57143,-15 32.85715,2.85714 -17.85715,-22.14286 31.42857,10 -11.42857,-30.71428 27.85715,17.85714 -11.42858,-26.42857 29.28572,17.85714 -16.42857,-32.14286 32.14285,17.14286 L 435,405.21932 471.42857,416.6479 c 0,0 -39.28571,-28.57143 -32.14286,-27.14286 7.14286,1.42857 61.42858,18.57143 61.42858,18.57143 0,0 -33.57143,-22.85715 -29.28572,-22.85715 4.28572,0 42.85714,2.85715 42.85714,2.85715 l -27.85714,-7.14286 25.71429,-4.28571 c 0,0 -25,-23.57143 -20,-22.85715 5,0.71429 35.71428,-4.28571 35.71428,-4.28571 l -29.23105,-8.33002 39.76587,-28.59747 -47.67767,16.2132 43.57142,-30.71428 -30,-3.57143 27.14286,-15 L 490,277.36218 537.85714,240.21932 500.71429,248.79075 510,220.21932 l -34.28571,17.85715 12.14285,-38.57143 -57.85714,10 34.28571,-21.42857 -40.71428,-6.42857 30,-10 -29.28572,-7.85715 L 445,152.36218 l -32.14286,-7.85714 39.28572,-22.85714 -27.85715,0.71428 c 0,0 35,-17.85714 27.85715,-17.14286 -7.14286,0.71429 -43.57143,5 -43.57143,5 l 42.14286,-29.999996 -53.57143,12.142858 20.71428,-43.571429 -27.14285,28.571429 -2.14286,-45 -15,22.142857 -15,-43.571429 -11.42857,22.142857 -30,-28.5714283 L 309.28571,28.076467 282.14286,0.93361008 281.42857,27.362182 257.85714,2.3621815 240,28.790753 217.14286,2.3621815 205,33.076467 188.57143,8.0764672 l 2.85714,24.9999998 -39.28571,-15 11.42857,15 -39.28572,-6.428571 17.14286,15 -39.28571,2.857143 11.42857,12.142857 -43.57143,0 L 92.857143,65.93361 49.285714,65.219324 76.428572,80.93361 39.285714,80.219324 52.857143,94.505039 5.7142857,100.93361 49.285714,116.6479 l -35.714285,4.28571 44.285714,20.71429 -37.142857,0 25,19.28571 c 0,0 -37.8571431,-6.42857 -35,-6.42857 2.857143,0 22.142857,19.28571 22.142857,19.28571 L -7.1428572,171.6479 c 0,0 22.8571432,13.57142 20.0000002,14.28571 -2.857143,0.71429 -45,1.42857 -45,1.42857 l 37.8571427,24.28572 -69.2857147,-2.85715 40,17.14286 L -60,230.21932 c 0,0 29.285714,11.42858 25.714286,12.14286 -3.571429,0.71429 -35,2.14286 -35,2.14286 l 41.428571,22.14286 -37.857143,22.14285 26.428572,4.28572 -19.285715,22.85714 37.142858,3.57143 -35.714286,8.57143 31.428571,10 -31.428571,6.42857 35.714286,0.71428 -35,28.57143 L -25,364.50504 -57.857143,412.36218 -20,395.21932 -32.857143,412.36218 8.5714286,405.93361 -30,423.07647 l 54.285714,-10 -37.857143,21.42857 L 50,421.6479 3.5714286,445.93361 33.571429,442.36218 c 0,0 -27.1428576,22.14286 -24.2857147,22.14286 2.8571427,0 49.9999997,-20 49.9999997,-20 L 32.857143,467.36218 66.428571,450.21932 57.857143,478.07647 90.714286,471.6479 72.142857,490.93361 120.71429,473.07647 85.714286,500.93361 115,496.6479 l -14.28571,12.85714 20.71428,2.85714 -10.71428,15 47.14285,8.57143 z" style="fill:#cccccc;fill-opacity:1;stroke:none"/>
      <path inkscape:connector-curvature="0" id="path4080" d="m 131.42857,520.93361 c -13.91083,-11.19112 2.39152,-24.78303 7.14286,-34.28571 4.12464,-8.24928 -15.38232,-9.94964 -2.14286,-36.42858 5.84362,-11.68724 -5.62779,-24.02624 -9.28571,-35 -2.48396,-7.45188 6.12123,-9.79227 7.85714,-15 7.47144,-22.41432 -7.2271,-44.83151 4.28571,-67.85714 1.07136,-2.14271 91.15353,-6.20895 95,-4.28571 3.49381,1.7469 6.56218,11.82938 7.85715,15.71428 3.59884,10.79654 7.09882,24.19766 12.14285,34.28572 3.69932,7.39862 -8.19941,11.83032 -5,21.42857 1.55064,4.65189 17.56111,9.87778 13.57143,17.85714 -4.66282,9.32566 -14.62043,17.09801 -19.28571,26.42857 -2.10006,4.20011 8.48655,7.6025 9.28571,10 1.53499,4.60497 2.18308,11.50902 4.28572,15.71429 4.66117,9.32235 -9.54823,16.10805 -13.57143,22.14286 -14.68048,22.02072 19.71769,52.85714 -48.57143,52.85714 -49.07273,0 -34.64999,5.35001 -63.57143,-23.57143 z" style="fill:#b6b6b6;fill-opacity:1;stroke:none"/>
      <path inkscape:connector-curvature="0" id="path4076" d="m 132.85714,355.21932 c 66.70498,-69.62486 34.27519,51.79098 65,36.42858 1.47002,-0.73501 9.62352,-66.80505 32.85715,-43.57143 5.97301,5.97301 13.97368,9.53194 18.57142,16.42857 1.05908,1.58862 8.95145,36.04856 11.42858,33.57143 9.73219,-9.73219 0.96654,-46.38609 -2.85715,-57.85715 C 252.1111,322.98121 275.84291,308.46233 270,290.93361 267.2402,282.6542 254.54231,262.49048 245.71429,258.07647 199.65282,235.04574 224.22883,316.09796 206.42857,311.6479 193.00585,308.29221 191.90507,288.31472 180,282.36218 c -8.22317,-4.11158 -15.49796,3.40544 -21.42857,1.42857 -8.99418,-2.99806 -23.36462,-15.46054 -34.28572,-10 -2.92581,1.46291 4.96151,71.80211 8.57143,81.42857 z" style="fill:#4f4f4f;fill-opacity:1;stroke:none"/>
      <path sodipodi:nodetypes="sssssssssss" inkscape:connector-curvature="0" id="path3933" d="m 135.36044,524.0524 c -0.97908,-10.55595 15.61207,-14.34941 23.23351,-21.71828 3.76577,-3.64097 6.29983,-9.04195 11.11168,-11.11168 5.72446,-2.46227 12.61784,-1.91488 18.68782,-0.50507 7.40881,1.72077 13.66265,6.724 20.20305,10.6066 5.21981,3.09865 12.28799,4.74953 15.15229,10.10152 2.14492,4.00782 2.48989,9.83394 0,13.63706 -5.53386,8.45255 -17.94921,9.78935 -27.7792,12.12183 -9.02296,2.14099 -18.59717,2.81455 -27.77919,1.51523 -7.59163,-1.07427 -14.81827,-4.23298 -21.71828,-7.57614 -3.95093,-1.91429 -10.70622,-2.69957 -11.11168,-7.07107 z" style="fill:#3e3e3e;fill-opacity:1;stroke:none"/>
      <g id="g3895">
        <path style="fill:#010203;fill-opacity:1;stroke:#000000;stroke-width:1px;stroke-linecap:butt;stroke-linejoin:miter;stroke-opacity:1" d="m 8.5862966,286.91909 c 6.3134534,-0.16836 12.6269074,-0.33672 18.9403604,-0.50508 8.289888,10.47018 16.783631,4.78149 25.316231,5.27403 18.077085,0.34006 27.439574,6.96372 41.027469,13.30348 -1.493316,-3.90966 -4.448471,-7.80422 -5.716493,-11.54893 16.722346,21.18673 12.985846,42.18169 20.720886,63.22284 0.75754,2.0412 6.19367,14.69734 4.35548,15.88128 -2.45224,1.57943 -9.85674,-10.87047 -10.43512,-7.75695 0.82547,17.40017 -13.690193,-1.69239 -21.038816,0.008 -55.899811,-1.06205 -68.338561,-46.2242 -67.075085,-55.1329 -3.074499,1.74442 -8.7971114,0.28649 -8.7971114,0.28649 l 3.3840103,-2.83591 -5.4368378,0.73219 6.8126419,-3.1421 -7.440635,-1.27914 6.5288815,-4.09998 -8.1602075,-0.0147 c 0,0 13.440553,-6.2782 18.883638,-8.60432 -3.956421,-1.26267 -7.912919,-2.52544 -11.8692924,-3.78804 z" id="path3083" inkscape:connector-curvature="0" sodipodi:nodetypes="ccccccsccccccccccccc"/>
        <path transform="matrix(1.1072044,0,0,1.1109101,-4.8173056,-38.158714)" style="fill:#7ba1bc;fill-opacity:1;stroke:#000000;stroke-opacity:1" d="m 93.57143,324.59433 c -0.02511,14.15228 -12.75189,25.625 -28.482143,25.625 -15.730254,0 -23.806811,-12.26182 -28.482144,-25.625 -6.166854,-17.62629 9.793777,-30.85001 28.482144,-25.625 16.001264,4.47373 28.506898,11.67008 28.482143,25.625 z" id="path3089" inkscape:connector-curvature="0" sodipodi:nodetypes="sssss"/>
        <path style="fill:#097ba3;fill-opacity:1;stroke:none" d="m 92.321433,320.93974 c -1.677822,11.26618 -13.097485,19.85029 -24.957716,20.64558 -13.949683,0.9354 -17.817369,-9.77932 -21.207716,-21.1813 -5.190744,-17.45684 7.466468,-21.89377 22.279145,-21.0027 13.955782,0.83952 25.638481,9.77285 23.886287,21.53842 z" id="path3860" inkscape:connector-curvature="0" sodipodi:nodetypes="sssss"/>
        <path sodipodi:type="arc" style="fill:#000000;stroke:none" id="path3863" sodipodi:cx="68.48214" sodipodi:cy="318.07648" sodipodi:rx="8.3035717" sodipodi:ry="7.3214288" d="m 76.785711,318.07648 c 0,4.04351 -3.717635,7.32143 -8.303571,7.32143 -4.585936,0 -8.303572,-3.27792 -8.303572,-7.32143 0,-4.04352 3.717636,-7.32143 8.303572,-7.32143 4.585936,0 8.303571,3.27791 8.303571,7.32143 z" transform="translate(1.4285714,-2.5)"/>
        <path sodipodi:nodetypes="sssss" inkscape:connector-curvature="0" id="path3865" d="m 93.57143,324.59433 c -0.02511,14.15228 -12.75189,25.625 -28.482143,25.625 -15.730254,0 -23.806811,-12.26182 -28.482144,-25.625 -6.166854,-17.62629 9.793777,-30.85001 28.482144,-25.625 16.001264,4.47373 28.506898,11.67008 28.482143,25.625 z" style="fill:url(#linearGradient4157);fill-opacity:1;stroke:none" transform="matrix(1.1072044,0,0,1.1109101,-4.8173056,-38.158714)"/>
      </g>
      <g transform="matrix(-1,0,0,1,400.04248,-5.0507627)" id="g3902">
        <path sodipodi:nodetypes="ccccccsccccccccccccc" inkscape:connector-curvature="0" id="path3904" d="m 8.5862966,286.91909 c 6.3134534,-0.16836 12.6269074,-0.33672 18.9403604,-0.50508 8.289888,10.47018 16.783631,4.78149 25.316231,5.27403 18.077085,0.34006 27.439574,6.96372 41.027469,13.30348 -1.493316,-3.90966 -4.448471,-7.80422 -5.716493,-11.54893 16.722346,21.18673 12.985846,42.18169 20.720886,63.22284 0.75754,2.0412 6.19367,14.69734 4.35548,15.88128 -2.45224,1.57943 -9.85674,-10.87047 -10.43512,-7.75695 0.82547,17.40017 -13.690193,-1.69239 -21.038816,0.008 -55.899811,-1.06205 -68.338561,-46.2242 -67.075085,-55.1329 -3.074499,1.74442 -8.7971114,0.28649 -8.7971114,0.28649 l 3.3840103,-2.83591 -5.4368378,0.73219 6.8126419,-3.1421 -7.440635,-1.27914 6.5288815,-4.09998 -8.1602075,-0.0147 c 0,0 13.440553,-6.2782 18.883638,-8.60432 -3.956421,-1.26267 -7.912919,-2.52544 -11.8692924,-3.78804 z" style="fill:#010203;fill-opacity:1;stroke:#000000;stroke-width:1px;stroke-linecap:butt;stroke-linejoin:miter;stroke-opacity:1"/>
        <path sodipodi:nodetypes="sssss" inkscape:connector-curvature="0" id="path3906" d="m 93.57143,324.59433 c -0.02511,14.15228 -12.75189,25.625 -28.482143,25.625 -15.730254,0 -23.806811,-12.26182 -28.482144,-25.625 -6.166854,-17.62629 9.793777,-30.85001 28.482144,-25.625 16.001264,4.47373 28.506898,11.67008 28.482143,25.625 z" style="fill:#7ba1bc;fill-opacity:1;stroke:#000000;stroke-opacity:1" transform="matrix(1.1072044,0,0,1.1109101,-4.8173056,-38.158714)"/>
        <path sodipodi:nodetypes="sssss" inkscape:connector-curvature="0" id="path3908" d="m 92.321433,320.93974 c -1.677822,11.26618 -13.097485,19.85029 -24.957716,20.64558 -13.949683,0.9354 -17.817369,-9.77932 -21.207716,-21.1813 -5.190744,-17.45684 7.466468,-21.89377 22.279145,-21.0027 13.955782,0.83952 25.638481,9.77285 23.886287,21.53842 z" style="fill:#097ba3;fill-opacity:1;stroke:none"/>
        <path transform="translate(1.4285714,-2.5)" d="m 76.785711,318.07648 c 0,4.04351 -3.717635,7.32143 -8.303571,7.32143 -4.585936,0 -8.303572,-3.27792 -8.303572,-7.32143 0,-4.04352 3.717636,-7.32143 8.303572,-7.32143 4.585936,0 8.303571,3.27791 8.303571,7.32143 z" sodipodi:ry="7.3214288" sodipodi:rx="8.3035717" sodipodi:cy="318.07648" sodipodi:cx="68.48214" id="path3910" style="fill:#000000;stroke:none" sodipodi:type="arc"/>
        <path transform="matrix(1.1072044,0,0,1.1109101,-4.8173056,-38.158714)" style="fill:url(#linearGradient4159);fill-opacity:1;stroke:none" d="m 93.57143,324.59433 c -0.02511,14.15228 -12.75189,25.625 -28.482143,25.625 -15.730254,0 -23.806811,-12.26182 -28.482144,-25.625 -6.166854,-17.62629 9.793777,-30.85001 28.482144,-25.625 16.001264,4.47373 28.506898,11.67008 28.482143,25.625 z" id="path3912" inkscape:connector-curvature="0" sodipodi:nodetypes="sssss"/>
      </g>
      <path sodipodi:nodetypes="cccccsccccscsccscsccccccsscsccccssccccc" inkscape:connector-curvature="0" id="path3922" d="m 116.60714,500.3979 c 6.4693,-5.07962 5.54341,29.14926 18.45702,25.52328 1.02892,-0.32408 25.83875,-16.29484 38.77342,-3.47256 12.11129,15.45078 21.32056,4.35765 34.54041,-3.50548 13.38359,-7.96052 27.90622,-1.18087 32.82858,-1.32851 2.58813,-0.0776 6.12978,5.40554 8.7933,5.40508 2.15271,-3.7e-4 3.4841,-5.31666 5.20995,-6.50025 6.58384,-4.51522 2.5266,-23.22275 10.34358,-21.60133 9.11954,1.8916 3.64633,18.97728 1.04845,27.92128 -3.86094,13.29248 -13.71537,24.46023 -23.54629,34.20446 -4.77796,10.55578 -22.92237,18.01449 -34.94663,22.90895 -3.53367,1.43836 -1.17031,5.82076 -2.67256,8.45235 -1.54533,4.97258 -1.24396,12.9047 1.88646,15.97086 2.85638,2.79775 9.07948,1.28824 12.56765,4.51436 21.90284,10.83139 38.5563,17.05535 51.65822,15.48636 2.05098,-0.72126 12.54859,-5.14668 12.55153,-7.72825 0.002,-1.83858 -10.5987,-1.86196 -9.47532,-2.92756 3.59601,-3.41104 11.01959,-5.57815 15.92506,-6.28732 13.94672,-2.01624 45.12665,-8.26826 50.22639,-15.83095 5.49111,4.63964 -0.61856,14.56522 -2.95886,21.36239 -12.47808,13.48343 -22.17611,28.39422 -26.12088,45.03911 -2.55735,3.3918 -4.89182,10.748 -8.83948,9.17946 -6.43364,-4.23256 7.78873,-26.22123 -0.34807,-34.38574 -11.95853,-12.13544 -32.27404,0.73939 -49.31097,0.87502 -9.9959,0.0796 -21.97625,1.17771 -31.7495,-0.9218 -9.74479,-2.0934 -15.68466,-8.8826 -28.6902,-6.95285 -9.53954,1.41547 -27.12832,12.06013 -36.59836,13.88349 -6.80459,1.31016 -16.33081,-2.17778 -23.32716,-2.48986 -5.95508,-0.26563 -9.38851,2.85197 -15.14523,1.56769 -9.93123,-0.57556 -39.629709,-16.08091 -33.775499,-23.30276 6.907487,-7.60909 25.035129,-4.97242 34.187139,-0.29777 6.15787,3.14531 7.34951,13.56648 14.0542,15.25746 14.99209,3.78113 30.98235,-6.55532 43.84697,-15.13209 6.19605,-4.13087 12.68412,-8.79057 15.7918,-14.14061 2.55346,-4.3959 2.82473,-9.25787 -1.22335,-14.67547 -5.61171,-3.66685 -19.42842,-12.70895 -28.28711,-21.775 -8.56271,-6.18619 -18.64964,-10.42275 -26.24044,-17.76909 -8.43311,-8.16152 -15.30507,-17.20989 -18.54136,-28.4906 -1.66185,-5.79267 -6.68708,-16.37933 -0.89286,-18.03575 z" style="fill:#000000;stroke:none"/>
      <path sodipodi:nodetypes="cccccccccccccccccccccc" inkscape:connector-curvature="0" id="path3929" d="m 189.82143,579.50504 c 1.57348,-2.67949 3.61059,-5.51185 3.71061,-8.62392 0.12766,-3.97199 -2.93573,-15.04905 -0.49633,-11.9118 3.93014,5.05445 2.85849,12.57685 5.53572,18.39286 4.26948,4.70714 16.54008,0.14956 15.28769,-5.81164 -0.74716,-3.07419 -4.81086,-4.35433 -5.7566,-7.65973 -0.52471,-1.83389 -2.59369,-3.41021 -2.20966,-5.27863 0.9234,-4.49258 2.70372,-9.06852 6.3028,-12.23629 3.38006,-2.97499 4.82156,-7.82806 8.55432,-10.27006 5.36206,-3.50791 10.91231,-6.60707 16.74337,-9.44652 2.56113,-1.24715 -2.53637,-5.29513 -4.01033,-6.93141 -2.76079,-3.06482 -6.83473,-3.26771 -10.67938,-2.61791 -5.96301,1.00783 -12.30599,2.59997 -16.86224,6.56291 -4.14488,3.60514 -8.51536,6.48435 -13.68446,7.74515 -4.03027,0.98302 -8.35249,1.77286 -12.38093,-0.41237 -3.71339,-2.01433 -6.84259,-4.57 -10.34172,-6.80904 -3.15236,-2.01715 -7.44277,-1.47656 -11.20882,-1.63659 -4.22864,-0.17291 -20.69552,3.35857 -18.68261,6.40927 3.27181,4.20088 9.98155,3.88587 14.63974,6.40036 11.00877,6.78393 19.83159,17.36967 25.68622,27.49158 2.24261,3.9256 0.59917,7.16497 -0.70523,11.01935 -0.25989,4.99128 7.74925,5.40882 10.55784,5.62443 z" style="fill:#c0c0c0;fill-opacity:1;stroke:none"/>
      <path inkscape:connector-curvature="0" id="path3958" d="m 103.57143,397.36218 c -5.030389,1.1817 -5.01995,5.39704 -6.785716,8.92857 -21.663883,43.32777 35.291446,7.36042 6.785716,-8.92857 z" style="fill:#000000;stroke:#000000;stroke-width:1px;stroke-linecap:butt;stroke-linejoin:miter;stroke-opacity:1"/>
      <path inkscape:connector-curvature="0" id="path3962" d="m 101.07143,207.36218 c -5.283149,5.05069 -15.397565,8.65227 -18.928573,15.71429 -2.731149,5.46229 -10.357143,33.50357 -10.357143,38.92857 0,2.47237 -3.58477,4.80142 -1.785714,7.5 1.111339,1.66701 8.783278,2.24878 10.714286,3.21428 12.082138,6.04107 31.265814,-50.08501 20.357144,-65.35714 z" style="fill:#000000;stroke:#000000;stroke-width:1px;stroke-linecap:butt;stroke-linejoin:miter;stroke-opacity:1"/>
      <path inkscape:connector-curvature="0" id="path3964" d="m 30.714286,209.50504 c -5.836618,1.01097 -21.1836676,26.71089 -18.928572,28.21428 4.684603,3.12307 13.743939,-4.47034 15.714286,-2.5 3.932427,3.93243 -4.023645,19.43646 9.285714,15 2.374376,-0.79145 4.876162,-6.30473 6.785715,-8.21428 15.8605,-15.8605 5.753275,-30.1737 -12.857143,-32.5 z" style="fill:#000000;stroke:#000000;stroke-width:1px;stroke-linecap:butt;stroke-linejoin:miter;stroke-opacity:1"/>
      <path inkscape:connector-curvature="0" id="path3966" d="m 38.928571,191.29075 c 4.910222,0.46907 8.484674,-3.12753 11.785715,-6.42857 13.590062,-13.59006 -21.071429,-23.77379 -21.071429,-19.28571 0,6.08215 6.565167,4.5589 8.214286,7.85714 2.442857,4.88571 -0.125952,12.46893 1.071428,17.85714 z" style="fill:#000000;stroke:#000000;stroke-width:1px;stroke-linecap:butt;stroke-linejoin:miter;stroke-opacity:1"/>
      <path inkscape:connector-curvature="0" id="path3968" d="m 115,155.93361 c -7.51221,1.75694 -14.36422,5.97855 -21.071428,8.21429 -6.948346,2.31611 -16.985409,6.48297 -22.142858,12.5 -4.886591,5.70102 1.28083,16.82265 8.571429,15 4.748316,-1.18708 14.236547,-14.37199 19.999997,-18.21429 11.02865,-7.35243 20.09068,2.67579 27.14286,-11.42857 3.98724,-7.97447 -8.55188,-6.07143 -12.5,-6.07143 z" style="fill:#000000;stroke:#000000;stroke-width:1px;stroke-linecap:butt;stroke-linejoin:miter;stroke-opacity:1"/>
      <path inkscape:connector-curvature="0" id="path3970" d="m 93.928572,125.93361 c -3.672542,0.43283 -6.128018,2.60538 -8.928572,4.28571 -33.815869,20.28953 14.642857,33.50713 14.642857,5.71429 0,-4.48937 -2.473802,-8.61122 -5.714285,-10 z" style="fill:#000000;stroke:#000000;stroke-width:1px;stroke-linecap:butt;stroke-linejoin:miter;stroke-opacity:1"/>
      <path inkscape:connector-curvature="0" id="path3972" d="m 61.785714,129.50504 c -43.952013,25.84322 13.032638,30.40949 0,0 z" style="fill:#000000;stroke:#000000;stroke-width:1px;stroke-linecap:butt;stroke-linejoin:miter;stroke-opacity:1"/>
      <path inkscape:connector-curvature="0" id="path3974" d="m 82.142857,90.576467 c -4.059309,0.854258 -7.195388,3.571428 -11.428571,3.571428 -6.114894,0 -10.009459,4.64601 -15.357143,6.428575 -20.306879,6.76896 32.00419,31.74781 26.785714,-10.000003 z" style="fill:#000000;stroke:#000000;stroke-width:1px;stroke-linecap:butt;stroke-linejoin:miter;stroke-opacity:1"/>
      <path inkscape:connector-curvature="0" id="path3976" d="m 90.357143,104.50504 c -16.89909,8.32528 -13.825498,34.79385 -1.785714,10.71428 2.296074,-4.59214 5.606367,-5.36537 1.785714,-10.71428 z" style="fill:#000000;stroke:#000000;stroke-width:1px;stroke-linecap:butt;stroke-linejoin:miter;stroke-opacity:1"/>
      <path inkscape:connector-curvature="0" id="path3978" d="m 113.21429,99.505038 c -2.908,3.234442 -7.42403,3.138312 -10.35715,6.071432 -12.631513,12.63151 23.29168,8.7262 19.64286,1.42857 -1.71938,-3.43877 -8.00484,-5.80215 -10.71429,-9.285716" style="fill:#000000;stroke:#000000;stroke-width:1px;stroke-linecap:butt;stroke-linejoin:miter;stroke-opacity:1"/>
      <path inkscape:connector-curvature="0" id="path3980" d="m 130.35714,68.43361 c -5.35714,0 -10.71428,0 -16.07143,0 -8.42478,0 -27.960058,14.489503 -13.57142,19.285714 10.56358,3.521194 46.02078,-12.006635 29.64285,-19.285714 z" style="fill:#000000;stroke:#000000;stroke-width:1px;stroke-linecap:butt;stroke-linejoin:miter;stroke-opacity:1"/>
      <path inkscape:connector-curvature="0" id="path3982" d="m 140,101.29075 c 4.61054,-5.083293 -3.75523,-7.662867 -2.14286,-12.499997 5.06861,-15.205813 28.82125,6.482235 18.21429,11.785717 -6.71623,3.35811 -10.93344,-1.487715 -16.07143,0.71428 z" style="fill:#000000;stroke:#000000;stroke-width:1px;stroke-linecap:butt;stroke-linejoin:miter;stroke-opacity:1"/>
      <path inkscape:connector-curvature="0" id="path3984" d="m 132.14286,109.50504 c -2.47026,-0.67105 -9.77884,4.37089 -8.21429,7.5 1.00812,2.01623 6.05647,1.78072 8.21429,2.5 18.93987,6.31329 16.02458,-23.353824 0,-10 z" style="fill:#000000;stroke:#000000;stroke-width:1px;stroke-linecap:butt;stroke-linejoin:miter;stroke-opacity:1"/>
      <path inkscape:connector-curvature="0" id="path3986" d="m 100.71429,153.07647 c 14.12209,4.65427 24.40838,-5.83479 35.71428,-10.35715 1.18279,-0.47311 13.04367,-8.3849 11.78572,-9.64285 -8.42322,-8.42322 -49.642861,15.34258 -49.642861,18.21428 0,2.46968 3.343341,1.25723 4.285711,1.42857" style="fill:#000000;stroke:#000000;stroke-width:1px;stroke-linecap:butt;stroke-linejoin:miter;stroke-opacity:1"/>
      <path inkscape:connector-curvature="0" id="path3988" d="M 168.92857,103.07647 C 170.26146,120.60265 155.6721,115.3037 155,116.6479 c -1.2673,2.53459 27.97621,9.28565 29.28571,5.35714 2.19534,-6.58601 -10.19781,-4.40656 -7.85714,-11.42857 0.55131,-1.65393 21.5157,-3.04003 18.57143,-8.92857 -6.99786,-13.995728 -21.49849,-3.538369 -25.35714,3.21428" style="fill:#000000;stroke:#000000;stroke-width:1px;stroke-linecap:butt;stroke-linejoin:miter;stroke-opacity:1"/>
      <path inkscape:connector-curvature="0" id="path3990" d="m 167.85714,50.93361 c -4.36221,-1.811423 -8.2987,2.142857 -11.78571,2.142857 -8.24817,0 -15.89397,9.91016 -5.71429,15 1.34174,0.670868 47.6981,-7.579526 38.57143,-12.142857 -6.2652,-3.132603 -14.38255,-2.133339 -21.07143,-5 z" style="fill:#000000;stroke:#000000;stroke-width:1px;stroke-linecap:butt;stroke-linejoin:miter;stroke-opacity:1"/>
      <path inkscape:connector-curvature="0" id="path3992" d="m 190.71429,72.005038 c -6.84627,0.112854 -17.85999,5.719969 -21.07143,12.142857 -0.81999,1.63998 2.6092,3.053915 3.57143,3.214286 34.21098,5.701831 62.40601,-20.970395 17.5,-15.357143 z" style="fill:#000000;stroke:#000000;stroke-width:1px;stroke-linecap:butt;stroke-linejoin:miter;stroke-opacity:1"/>
      <path inkscape:connector-curvature="0" id="path3994" d="m 259.28571,97.719324 c -4.42107,-1.374931 -8.02073,1.201612 -11.78571,2.142857 -27.43667,6.859169 1.06889,20.001269 12.5,14.285719 10.36247,-5.18124 12.781,-13.00059 -0.35714,-14.642862" style="fill:#000000;stroke:#000000;stroke-width:1px;stroke-linecap:butt;stroke-linejoin:miter;stroke-opacity:1"/>
      <path inkscape:connector-curvature="0" id="path3996" d="m 136.78571,199.50504 c 4.34646,-2.20097 4.94414,-6.06464 7.5,-9.64286 8.79628,-12.31478 0.67434,-31.4086 -16.42857,-22.85714 -21.49388,10.74694 1.81477,33.38922 8.92857,32.5 z" style="fill:#000000;stroke:#000000;stroke-width:1px;stroke-linecap:butt;stroke-linejoin:miter;stroke-opacity:1"/>
      <path inkscape:connector-curvature="0" id="path3998" d="m 137.5,204.86218 c 6.8517,14.44525 -3.92857,24.2097 -3.92857,38.21429 0,19.1284 39.25495,-24.9669 3.92857,-38.21429 z" style="fill:#000000;stroke:#000000;stroke-width:1px;stroke-linecap:butt;stroke-linejoin:miter;stroke-opacity:1"/>
      <path inkscape:connector-curvature="0" id="path4000" d="m 145.71429,257.36218 c -5.80498,3.75808 -12.18824,6.87647 -15,12.5 -11.60847,23.21694 41.38882,-1.1905 15,-12.5 z" style="fill:#000000;stroke:#000000;stroke-width:1px;stroke-linecap:butt;stroke-linejoin:miter;stroke-opacity:1"/>
      <path inkscape:connector-curvature="0" id="path4002" d="m 157.14286,279.86218 c -35.93582,15.41855 -4.09192,27.43912 0.35714,9.64286 1.1067,-4.42679 2.86773,-5.77301 -0.35714,-9.64286 z" style="fill:#000000;stroke:#000000;stroke-width:1px;stroke-linecap:butt;stroke-linejoin:miter;stroke-opacity:1"/>
      <path inkscape:connector-curvature="0" id="path4004" d="m 186.07143,141.29075 c -7.77259,-2.28336 -14.95025,-0.52985 -21.78572,3.57143 -14.001,8.4006 21.78572,29.00151 21.78572,-3.57143 z" style="fill:#000000;stroke:#000000;stroke-width:1px;stroke-linecap:butt;stroke-linejoin:miter;stroke-opacity:1"/>
      <path inkscape:connector-curvature="0" id="path4006" d="m 208.57143,129.1479 c -16.08028,26.70181 10.36237,24.17886 0,0 z" style="fill:#000000;stroke:#000000;stroke-width:1px;stroke-linecap:butt;stroke-linejoin:miter;stroke-opacity:1"/>
      <path inkscape:connector-curvature="0" id="path4008" d="m 222.85714,136.6479 c -11.37153,30.59091 19.75709,30.34269 10.71429,3.21428 -0.66851,-2.00551 -7.02232,-1.98288 -8.92857,-3.57143" style="fill:#000000;stroke:#000000;stroke-width:1px;stroke-linecap:butt;stroke-linejoin:miter;stroke-opacity:1"/>
      <path inkscape:connector-curvature="0" id="path4010" d="m 194.64286,166.6479 c 1.38597,31.85845 19.41289,-11.09309 0,0 z" style="fill:#000000;stroke:#000000;stroke-width:1px;stroke-linecap:butt;stroke-linejoin:miter;stroke-opacity:1"/>
      <path inkscape:connector-curvature="0" id="path4012" d="m 175.35714,170.21932 c -2.49081,0.33905 -3.86517,5.20358 -2.14285,7.5 13.41522,17.88696 11.06851,-23.11989 2.14285,-7.5 z" style="fill:#000000;stroke:#000000;stroke-width:1px;stroke-linecap:butt;stroke-linejoin:miter;stroke-opacity:1"/>
      <path inkscape:connector-curvature="0" id="path4014" d="m 218.57143,186.6479 c -4.80436,0.9906 -5.33399,4.94906 -7.14286,8.92857 -6.80439,14.96966 25.50134,2.54547 7.14286,-8.92857 z" style="fill:#000000;stroke:#000000;stroke-width:1px;stroke-linecap:butt;stroke-linejoin:miter;stroke-opacity:1"/>
      <path inkscape:connector-curvature="0" id="path4016" d="m 223.57143,175.21932 c -1.94806,-0.96759 -3.95727,-0.71428 -6.07143,-0.71428 -5.91959,0 9.64286,12.35042 9.64286,2.85714 0,-2.15079 -1.91766,-1.72941 -3.57143,-2.14286 z" style="fill:#000000;stroke:#000000;stroke-width:1px;stroke-linecap:butt;stroke-linejoin:miter;stroke-opacity:1"/>
      <path inkscape:connector-curvature="0" id="path4018" d="m 244.64286,201.6479 c -3.64116,0.80225 -5.75044,4.09787 -8.21429,6.78571 -2.81789,3.07406 -7.3566,5.14205 -9.64286,8.57143 -6.01965,9.02949 2.54684,27.84543 13.92858,25 9.64177,-2.41045 8.12445,-35.32209 3.92857,-40.35714 z" style="fill:#000000;stroke:#000000;stroke-width:1px;stroke-linecap:butt;stroke-linejoin:miter;stroke-opacity:1"/>
      <path inkscape:connector-curvature="0" id="path4020" d="m 264.64286,183.07647 c -22.45936,-4.34358 -12.01456,25.58598 2.5,11.07143 3.43577,-3.43577 -0.23585,-8.35445 -2.5,-11.07143 z" style="fill:#000000;stroke:#000000;stroke-width:1px;stroke-linecap:butt;stroke-linejoin:miter;stroke-opacity:1"/>
      <path inkscape:connector-curvature="0" id="path4022" d="m 225,257.36218 c 2.55213,9.60019 -3.44976,19.77238 -1.07143,29.28572 0.97805,3.91219 13.25091,8.5348 16.78572,5 C 255.61643,276.74575 234.52928,264.16881 225,257.36218 z" style="fill:#000000;stroke:#000000;stroke-width:1px;stroke-linecap:butt;stroke-linejoin:miter;stroke-opacity:1"/>
      <path inkscape:connector-curvature="0" id="path4024" d="m 210,220.93361 c -3.79192,1.68599 -6.15829,6.2992 -8.21429,10 -0.71847,1.29326 -7.44422,24.58708 1.78572,15.35714 0.62259,-0.62259 13.12565,-29.18404 6.42857,-25.35714 z" style="fill:#000000;stroke:#000000;stroke-width:1px;stroke-linecap:butt;stroke-linejoin:miter;stroke-opacity:1"/>
      <path inkscape:connector-curvature="0" id="path4026" d="m 185.35714,202.71932 c -5.65506,6.19987 -15.3936,26.29737 -4.28571,30 4.24475,1.41492 9.51858,-34.36072 4.28571,-30 z" style="fill:#000000;stroke:#000000;stroke-width:1px;stroke-linecap:butt;stroke-linejoin:miter;stroke-opacity:1"/>
      <path inkscape:connector-curvature="0" id="path4028" d="m 180,291.29075 c -4.08164,4.78607 -17.81686,14.36629 -13.92857,22.14286 2.16776,4.33553 18.96191,-10.73095 21.07143,-11.78571 6.15213,-3.07607 16.49568,18.50432 22.14285,12.85714 2.45461,-2.45461 -12.14285,-18.46744 -12.14285,-23.57143 0,-7.37588 8.26441,-40.10234 -1.07143,-43.21429 C 181.66544,242.91733 180.99278,283.34853 180,291.29075 z" style="fill:#000000;stroke:#000000;stroke-width:1px;stroke-linecap:butt;stroke-linejoin:miter;stroke-opacity:1"/>
      <path inkscape:connector-curvature="0" id="path4030" d="m 298.92857,157.71932 c -6.61628,3.21465 -16.56056,-3.14828 -22.85714,0 -24.69332,12.34666 13.26774,38.35762 22.85714,0 z" style="fill:#000000;stroke:#000000;stroke-width:1px;stroke-linecap:butt;stroke-linejoin:miter;stroke-opacity:1"/>
      <path inkscape:connector-curvature="0" id="path4032" d="m 288.92857,206.29075 c -4.42006,5.9711 -5.71428,20.38449 -5.71428,28.57143 0,16.47526 4.85721,37.85714 23.57142,37.85714 3.40513,0 6.42034,-0.6937 7.85715,-4.28571 4.23131,-10.57827 -5.29794,-65.32754 -15.35715,-70.35714 -3.94117,-1.97059 -7.24136,5.09851 -10.35714,8.21428 z" style="fill:#000000;stroke:#000000;stroke-width:1px;stroke-linecap:butt;stroke-linejoin:miter;stroke-opacity:1"/>
      <path inkscape:connector-curvature="0" id="path4034" d="m 285,399.50504 c -27.55705,34.12982 52.92954,33.08096 0,0 z" style="fill:#000000;stroke:#000000;stroke-width:1px;stroke-linecap:butt;stroke-linejoin:miter;stroke-opacity:1"/>
      <path inkscape:connector-curvature="0" id="path4036" d="m 409.28571,360.21932 c 10.81602,-1.47676 20.09225,7.14286 30,7.14286 35.49233,0 -47.87734,-40.66379 -57.85714,-15.71428 -9.70062,24.25154 27.85714,59.53897 27.85714,8.57142 z" style="fill:#000000;stroke:#000000;stroke-width:1px;stroke-linecap:butt;stroke-linejoin:miter;stroke-opacity:1"/>
      <path inkscape:connector-curvature="0" id="path4038" d="m 455,313.79075 c -3.95689,20.20016 5.05724,95.32853 41.42857,77.14286 C 518.17946,380.05817 471.07015,318.38222 455,313.79075 z" style="fill:#000000;stroke:#000000;stroke-width:1px;stroke-linecap:butt;stroke-linejoin:miter;stroke-opacity:1"/>
      <path inkscape:connector-curvature="0" id="path4040" d="m 442.14286,292.36218 c -33.91073,1.95606 0,51.58972 0,0 z" style="fill:#000000;stroke:#000000;stroke-width:1px;stroke-linecap:butt;stroke-linejoin:miter;stroke-opacity:1"/>
      <path inkscape:connector-curvature="0" id="path4042" d="M 430.71429,273.79075 C 412.86412,270.08323 381.79681,313.42991 415,302.36218 c 10.90076,-3.63358 11.92973,-19.74425 19.28571,-28.57143" style="fill:#000000;stroke:#000000;stroke-width:1px;stroke-linecap:butt;stroke-linejoin:miter;stroke-opacity:1"/>
      <path inkscape:connector-curvature="0" id="path4044" d="m 340,175.93361 c -23.45926,-28.7345 -27.30665,9.56096 -5,20.71429 4.56942,2.2847 15.34563,-17.7584 5,-20.71429 z" style="fill:#000000;stroke:#000000;stroke-width:1px;stroke-linecap:butt;stroke-linejoin:miter;stroke-opacity:1"/>
      <path inkscape:connector-curvature="0" id="path4046" d="m 300,70.219324 c -52.24401,19.241071 13.75849,27.483019 15.71429,23.571429 0.93214,-1.864297 -1.42858,-12.512995 -1.42858,-15.714286 0,-8.373279 -7.33939,-7.085329 -14.28571,-7.857143 z" style="fill:#000000;stroke:#000000;stroke-width:1px;stroke-linecap:butt;stroke-linejoin:miter;stroke-opacity:1"/>
      <path inkscape:connector-curvature="0" id="path4048" d="m 324.28571,120.21932 c -69.42074,-39.159423 -24.66755,14.09575 0,0 z" style="fill:#000000;stroke:#000000;stroke-width:1px;stroke-linecap:butt;stroke-linejoin:miter;stroke-opacity:1"/>
      <path inkscape:connector-curvature="0" id="path4050" d="m 315.71429,134.50504 c -35.16693,-7.3694 5.7552,17.14286 20.71428,17.14286 0.053,0 -14.06463,-5.50597 -20.71428,-17.14286 z" style="fill:#000000;stroke:#000000;stroke-width:1px;stroke-linecap:butt;stroke-linejoin:miter;stroke-opacity:1"/>
      <path inkscape:connector-curvature="0" id="path4052" d="m 350.71429,71.647896 c -43.55509,-7.807462 2.85714,27.489139 2.85714,0.714286" style="fill:#000000;stroke:#000000;stroke-width:1px;stroke-linecap:butt;stroke-linejoin:miter;stroke-opacity:1"/>
      <path inkscape:connector-curvature="0" id="path4054" d="m 326.42857,48.076467 c -6.28562,-1.181684 -12.86289,-0.714285 -19.28571,-0.714285 -27.60245,0 14.78056,27.581729 25.71428,5.714285 2.08634,-4.172675 -2.0826,-3.913508 -6.42857,-5 z" style="fill:#000000;stroke:#000000;stroke-width:1px;stroke-linecap:butt;stroke-linejoin:miter;stroke-opacity:1"/>
      <path inkscape:connector-curvature="0" id="path4056" d="m 270,55.219324 c -41.56524,10.641624 12.54195,29.264561 0,0 z" style="fill:#000000;stroke:#000000;stroke-width:1px;stroke-linecap:butt;stroke-linejoin:miter;stroke-opacity:1"/>
      <path inkscape:connector-curvature="0" id="path4058" d="m 374.28571,200.21932 c -7.82861,1.94439 -15.50258,8.05551 -20,11.42858 -4.06369,3.04777 -9.67508,2.9001 -12.85714,7.14285 -18.84752,25.13003 16.09113,-2.66872 21.42857,0 7.25816,3.62908 -22.06735,30.50136 -12.85714,33.57143 18.59916,6.19972 27.10155,-21.30464 30.71429,-32.14286 1.95904,-5.87714 18.57142,-6.90933 18.57142,-0.71428 0,10.52478 -17.55785,-11.84357 -25,-19.28572 z" style="fill:#000000;stroke:#000000;stroke-width:1px;stroke-linecap:butt;stroke-linejoin:miter;stroke-opacity:1"/>
      <path inkscape:connector-curvature="0" id="path4060" d="m 407.85714,226.6479 c -8.15638,51.70706 31.49464,31.49464 0,0 z" style="fill:#000000;stroke:#000000;stroke-width:1px;stroke-linecap:butt;stroke-linejoin:miter;stroke-opacity:1"/>
      <path inkscape:connector-curvature="0" id="path4062" d="m 433.57143,243.07647 c 2.60518,43.89197 35.04761,39.91428 3.57143,2.14285" style="fill:#000000;stroke:#000000;stroke-width:1px;stroke-linecap:butt;stroke-linejoin:miter;stroke-opacity:1"/>
      <path inkscape:connector-curvature="0" id="path4064" d="m 360.71429,113.79075 c -15.44339,-3.69653 8.49551,36.58041 14.28571,25 2.86395,-5.72789 -12.13686,-19.986 -14.28571,-25 z" style="fill:#000000;stroke:#000000;stroke-width:1px;stroke-linecap:butt;stroke-linejoin:miter;stroke-opacity:1"/>
      <path inkscape:connector-curvature="0" id="path4066" d="m 380,109.50504 c -5.64704,45.75633 26.86584,22.58012 2.85714,-1.42857" style="fill:#000000;stroke:#000000;stroke-width:1px;stroke-linecap:butt;stroke-linejoin:miter;stroke-opacity:1"/>
      <path inkscape:connector-curvature="0" id="path4068" d="m 352.85714,133.07647 c -2.76215,-3.1398 -17.17694,-1.46266 -10.71428,5 23.48566,23.48566 23.23656,-5 10.71428,-5 z" style="fill:#000000;stroke:#000000;stroke-width:1px;stroke-linecap:butt;stroke-linejoin:miter;stroke-opacity:1"/>
      <path inkscape:connector-curvature="0" id="path4070" d="m 396.42857,154.50504 c -33.84795,-2.64747 24.55591,41.52485 12.85714,6.42857 -2.26675,-6.80026 -7.39738,-9.35844 -12.14285,-10.71429" style="fill:#000000;stroke:#000000;stroke-width:1px;stroke-linecap:butt;stroke-linejoin:miter;stroke-opacity:1"/>
      <path inkscape:connector-curvature="0" id="path4072" d="m 373.57143,173.07647 c 13.75072,17.18949 26.80621,34.41159 50,42.14285 6.34067,2.11356 -6.15463,-15.27394 -1.42857,-20 5.47301,-5.47301 19.04552,15.00315 21.42857,11.42858 10.08296,-15.12445 -6.83124,-28.05848 -16.42857,-32.85715 -8.97177,-4.48588 -10.19584,18.98234 -24.28572,14.28572 -12.41059,-4.13687 -17.13385,-21.94393 -29.28571,-15 z" style="fill:#000000;stroke:#000000;stroke-width:1px;stroke-linecap:butt;stroke-linejoin:miter;stroke-opacity:1"/>
      <path inkscape:connector-curvature="0" id="path4074" d="m 279.28571,464.50504 c -25.50302,2.33449 8.57143,32.10134 8.57143,7.14286 0,-4.53121 -4.89797,-5.76532 -8.57143,-7.14286 z" style="fill:#000000;stroke:#000000;stroke-width:1px;stroke-linecap:butt;stroke-linejoin:miter;stroke-opacity:1"/>
      <path inkscape:connector-curvature="0" id="path4084" d="m 467.70063,522.0321 c -9.86224,-0.93453 -19.87744,-0.50508 -29.7995,-0.50508 -4.4052,0 -14.0755,4.47905 -17.17259,7.57614 -15.92749,15.92749 11.13453,17.78783 22.22335,22.22336 25.75828,10.30331 43.28486,-19.38055 15.65737,-27.27412" style="fill:#000000;stroke:#000000;stroke-width:1px;stroke-linecap:butt;stroke-linejoin:miter;stroke-opacity:1"/>
      <path inkscape:connector-curvature="0" id="path4086" d="m 507.60165,481.62599 c -4.39215,-2.40453 -13.98238,-5.54938 -18.68782,-2.0203 -15.29523,11.47142 12.81227,31.97966 24.24366,26.26397 7.94993,-3.97497 0.10858,-23.89488 -7.57614,-24.74874" style="fill:#000000;stroke:#000000;stroke-width:1px;stroke-linecap:butt;stroke-linejoin:miter;stroke-opacity:1"/>
      <path inkscape:connector-curvature="0" id="path4088" d="m 575.28187,450.81634 c -14.01228,-15.92023 -21.781,-28.80105 -44.95178,-16.16244 -4.27421,2.33138 -9.62526,6.42197 -8.5863,11.61676 2.79769,13.98842 32.17304,35.57431 46.46702,30.80965 1.36484,-0.45495 4.49013,-15.94022 7.07106,-26.26397 z" style="fill:#000000;stroke:#000000;stroke-width:1px;stroke-linecap:butt;stroke-linejoin:miter;stroke-opacity:1"/>
      <path inkscape:connector-curvature="0" id="path4090" d="m 508.10673,351.82139 c -7.89535,10.92541 3.40358,56.10745 21.71828,50.00255 13.14559,-4.38186 -4.42549,-31.77658 -21.71828,-50.00255 z" style="fill:#000000;stroke:#000000;stroke-width:1px;stroke-linecap:butt;stroke-linejoin:miter;stroke-opacity:1"/>
      <path inkscape:connector-curvature="0" id="path4092" d="m 539.92654,166.4584 c -38.39198,-11.7335 -79.79758,52.67032 -21.71828,27.77919 11.09194,-4.75369 20.06735,-14.57175 21.71828,-27.77919 z" style="fill:#000000;stroke:#000000;stroke-width:1px;stroke-linecap:butt;stroke-linejoin:miter;stroke-opacity:1"/>
      <path inkscape:connector-curvature="0" id="path4094" d="m 460.62956,110.90001 c -11.54822,-0.89548 -18.4893,6.92218 -26.76904,13.13198 -30.62426,22.96819 57.16719,57.79703 26.76904,-13.13198 z" style="fill:#000000;stroke:#000000;stroke-width:1px;stroke-linecap:butt;stroke-linejoin:miter;stroke-opacity:1"/>
      <path inkscape:connector-curvature="0" id="path4096" d="m -20.203051,487.18183 c -29.630072,7.59124 3.257969,40.08986 9.596449,24.24366 3.9581442,-9.89536 -9.596449,-15.29629 -9.596449,-24.24366 z" style="fill:#000000;stroke:#000000;stroke-width:1px;stroke-linecap:butt;stroke-linejoin:miter;stroke-opacity:1"/>
      <path inkscape:connector-curvature="0" id="path4098" d="m 30.809653,518.49656 c -46.116878,-20.62589 0,61.88007 0,0 z" style="fill:#000000;stroke:#000000;stroke-width:1px;stroke-linecap:butt;stroke-linejoin:miter;stroke-opacity:1"/>
      <path inkscape:connector-curvature="0" id="path4100" d="m 89.903577,527.58794 c -51.291081,-3.84629 32.521923,17.01857 -2.525382,-0.50508" style="fill:#000000;stroke:#000000;stroke-width:1px;stroke-linecap:butt;stroke-linejoin:miter;stroke-opacity:1"/>
      <path inkscape:connector-curvature="0" id="path4104" d="m 76.266517,702.34433 c -4.700107,-0.42521 -7.894721,6.76178 -10.101525,11.61675 -10.305993,22.67318 25.664467,17.79407 12.626907,-12.62691" style="fill:#000000;stroke:#000000;stroke-width:1px;stroke-linecap:butt;stroke-linejoin:miter;stroke-opacity:1"/>
      <path inkscape:connector-curvature="0" id="path4106" d="m 269.28571,578.43361 c -14.85733,10.55708 13.20854,7.29346 0.35715,1.78571" style="fill:#000000;stroke:#000000;stroke-width:1px;stroke-linecap:butt;stroke-linejoin:miter;stroke-opacity:1"/>
      <path inkscape:connector-curvature="0" id="path4108" d="m 282.85714,575.21932 c -18.59794,6.24333 18.2409,11.81233 7.5,1.07143 -1.79761,-1.79761 -5.02982,-1.07143 -7.5,-1.07143 z" style="fill:#000000;stroke:#000000;stroke-width:1px;stroke-linecap:butt;stroke-linejoin:miter;stroke-opacity:1"/>
      <path inkscape:connector-curvature="0" id="path4110" d="m 301.78571,568.07647 c -7.8199,3.30673 -2.88256,18.76271 6.07143,14.28571 5.87933,-2.93966 5.40731,-20.02508 -6.07143,-14.28571 z" style="fill:#000000;stroke:#000000;stroke-width:1px;stroke-linecap:butt;stroke-linejoin:miter;stroke-opacity:1"/>
      <path inkscape:connector-curvature="0" id="path4112" d="m 328.92857,560.93361 c -31.15893,4.00333 3.21429,28.68454 3.21429,7.5 0,-3.46018 0.39571,-4.11612 -2.5,-5.35714" style="fill:#000000;stroke:#000000;stroke-width:1px;stroke-linecap:butt;stroke-linejoin:miter;stroke-opacity:1"/>
      <path inkscape:connector-curvature="0" id="path4114" d="m 341.07143,556.29075 c -27.281,10.95037 29.77584,7.57561 -1.42857,-1.78571" style="fill:#000000;stroke:#000000;stroke-width:1px;stroke-linecap:butt;stroke-linejoin:miter;stroke-opacity:1"/>
      <path inkscape:connector-curvature="0" id="path4116" d="m 317.5,585.93361 c -37.31746,22.10411 47.81692,-6.78571 18.21429,-6.78571 -6.80518,0 -11.80859,5.985 -18.21429,6.78571 z" style="fill:#000000;stroke:#000000;stroke-width:1px;stroke-linecap:butt;stroke-linejoin:miter;stroke-opacity:1"/>
      <path inkscape:connector-curvature="0" id="path4118" d="m 289.28571,591.29075 c -14.16822,12.77138 16.40969,11.7212 0,0 z" style="fill:#000000;stroke:#000000;stroke-width:1px;stroke-linecap:butt;stroke-linejoin:miter;stroke-opacity:1"/>
      <path inkscape:connector-curvature="0" id="path4120" d="m 269.28571,595.93361 c -2.10771,4.47726 8.14239,5.35675 2.14286,0.35714" style="fill:#000000;stroke:#000000;stroke-width:1px;stroke-linecap:butt;stroke-linejoin:miter;stroke-opacity:1"/>
      <path inkscape:connector-curvature="0" id="path4122" d="m 251.42857,592.00504 c -15.43323,-0.57199 4.52006,10.5468 0,0 z" style="fill:#000000;stroke:#000000;stroke-width:1px;stroke-linecap:butt;stroke-linejoin:miter;stroke-opacity:1"/>
      <path inkscape:connector-curvature="0" id="path4124" d="m 237.14286,590.93361 c -10.18123,0.21879 3.03481,7.08124 0,0 z" style="fill:#000000;stroke:#000000;stroke-width:1px;stroke-linecap:butt;stroke-linejoin:miter;stroke-opacity:1"/>
      <path inkscape:connector-curvature="0" id="path4126" d="m 253.92857,601.6479 c -1.64057,0.86055 -5.71773,2.15318 -6.42857,4.28571 -0.43244,1.29732 1.30603,1.42857 2.14286,1.42857 17.03019,0 8.74351,-8.2616 4.28571,-5.71428 z" style="fill:#000000;stroke:#000000;stroke-width:1px;stroke-linecap:butt;stroke-linejoin:miter;stroke-opacity:1"/>
      <path inkscape:connector-curvature="0" id="path4128" d="m 155.71429,595.21932 c -17.66911,14.38398 20.89173,-2.61146 -2.85715,0.35715" style="fill:#000000;stroke:#000000;stroke-width:1px;stroke-linecap:butt;stroke-linejoin:miter;stroke-opacity:1"/>
      <path inkscape:connector-curvature="0" id="path4130" d="m 177.85714,588.07647 c -10.0665,1.52491 10.52894,4.72875 -1.78571,-1.42857" style="fill:#000000;stroke:#000000;stroke-width:1px;stroke-linecap:butt;stroke-linejoin:miter;stroke-opacity:1"/>
      <path inkscape:connector-curvature="0" id="path4132" d="m 167.5,592.00504 c -3.1915,9.52075 6.83274,5.69394 0,0 z" style="fill:#000000;stroke:#000000;stroke-width:1px;stroke-linecap:butt;stroke-linejoin:miter;stroke-opacity:1"/>
      <path inkscape:connector-curvature="0" id="path4134" d="m 138.92857,612.71932 c -4.84128,-0.80426 -5.12143,3.01906 -7.14286,5.71429 -1.41552,1.88737 -4.76657,-0.5287 -6.07142,1.42857 -2.91575,4.37362 13.21428,4.77566 13.21428,-7.14286 z" style="fill:#000000;stroke:#000000;stroke-width:1px;stroke-linecap:butt;stroke-linejoin:miter;stroke-opacity:1"/>
      <path inkscape:connector-curvature="0" id="path4136" d="m 121.07143,582.71932 c -25.224902,4.05674 21.28615,12.16352 0,0 z" style="fill:#000000;stroke:#000000;stroke-width:1px;stroke-linecap:butt;stroke-linejoin:miter;stroke-opacity:1"/>
      <path inkscape:connector-curvature="0" id="path4138" d="m 105,573.79075 c -20.957096,5.35343 -1.81006,16.10794 1.07143,11.78572 2.15237,-3.22855 -2.97009,-7.35551 -1.07143,-11.78572 z" style="fill:#000000;stroke:#000000;stroke-width:1px;stroke-linecap:butt;stroke-linejoin:miter;stroke-opacity:1"/>
      <path inkscape:connector-curvature="0" id="path4140" d="m 85.714286,570.21932 c -3.299851,-1.05975 -4.808235,0.79698 -7.5,2.14286 -17.989022,8.99451 24.554544,10.51076 6.785714,0.35714" style="fill:#000000;stroke:#000000;stroke-width:1px;stroke-linecap:butt;stroke-linejoin:miter;stroke-opacity:1"/>
      <path inkscape:connector-curvature="0" id="path4142" d="m 61.071429,562.71932 c -2.88032,16.55704 19.371877,24.12063 2.142857,0" style="fill:#000000;stroke:#000000;stroke-width:1px;stroke-linecap:butt;stroke-linejoin:miter;stroke-opacity:1"/>
      <path inkscape:connector-curvature="0" id="path4144" d="m 108.92857,597.71932 c -6.16772,-3.49836 -14.323351,-0.35714 -19.285713,-0.35714 -6.693738,0 -12.966829,-8.36543 -19.285714,-6.78571 -13.675159,3.41879 26.019678,22.99344 32.857147,20.71428 0.16305,-0.0543 5.21075,-12.22866 5.71428,-13.57143 z" style="fill:#000000;stroke:#000000;stroke-width:1px;stroke-linecap:butt;stroke-linejoin:miter;stroke-opacity:1"/>
      <path inkscape:connector-curvature="0" id="path4146" d="m 121.78571,601.6479 c -8.1,12.87803 14.82813,-1.85352 0,0 z" style="fill:#000000;stroke:#000000;stroke-width:1px;stroke-linecap:butt;stroke-linejoin:miter;stroke-opacity:1"/>
      <path inkscape:connector-curvature="0" id="path4148" d="m 143.21429,603.43361 c -7.35646,1.73654 7.69488,5.49635 0,0 z" style="fill:#000000;stroke:#000000;stroke-width:1px;stroke-linecap:butt;stroke-linejoin:miter;stroke-opacity:1"/>
      <path inkscape:connector-curvature="0" id="path4150" d="m 136.42857,588.43361 c -2.51025,4.86517 -0.50817,5.71429 3.92857,5.71429 2.31149,0 -3.29355,-3.49174 -3.92857,-5.71429 z" style="fill:#000000;stroke:#000000;stroke-width:1px;stroke-linecap:butt;stroke-linejoin:miter;stroke-opacity:1"/>
      <path inkscape:connector-curvature="0" id="path4152" d="m 236.78571,647.71932 c 0.22508,2.65725 -1.75714,8.37143 0,10.71429 1.70099,2.26798 3.67365,2.14286 6.42858,2.14286 13.04904,0 -3.15535,-26.75273 -6.07143,-10.71429" style="fill:#000000;stroke:#000000;stroke-width:1px;stroke-linecap:butt;stroke-linejoin:miter;stroke-opacity:1"/>
      <path inkscape:connector-curvature="0" id="path4154" d="m 218.57143,652.00504 c -4.98863,13.88942 15.18827,6.50926 0,0 z" style="fill:#000000;stroke:#000000;stroke-width:1px;stroke-linecap:butt;stroke-linejoin:miter;stroke-opacity:1"/>
      <path inkscape:connector-curvature="0" id="path4156" d="m 121.42857,661.29075 c -4.82047,14.77568 12.45996,6.66652 1.07143,1.78572" style="fill:#000000;stroke:#000000;stroke-width:1px;stroke-linecap:butt;stroke-linejoin:miter;stroke-opacity:1"/>
      <path inkscape:connector-curvature="0" id="path4158" d="m 133.92857,639.1479 c -21.60366,1.44687 21.35457,15.25326 0,0 z" style="fill:#000000;stroke:#000000;stroke-width:1px;stroke-linecap:butt;stroke-linejoin:miter;stroke-opacity:1"/>
      <path inkscape:connector-curvature="0" id="path4160" d="m 161.78571,642.36218 c -2.76249,0.9553 -5.13788,4.72424 -3.57142,7.85714 0.69792,1.39585 3.77462,2.75555 5,2.14286 5.14875,-2.57438 6.16661,-12.19045 13.21428,-15.71428 0.44703,-0.22352 3.39668,-0.18239 3.21429,0 -2.37052,2.37051 -6.39054,-3.67023 -9.64286,-2.85715 -3.76735,0.94184 -5.89728,5.79103 -8.21429,8.57143 z" style="fill:#000000;stroke:#000000;stroke-width:1px;stroke-linecap:butt;stroke-linejoin:miter;stroke-opacity:1"/>
      <path inkscape:connector-curvature="0" id="path4162" d="m 191.42857,634.50504 c -14.16461,16.14319 13.23042,17.20741 11.07143,8.57143 -1.20017,-4.80068 -8.84317,-4.67198 -11.07143,-8.57143 z" style="fill:#000000;stroke:#000000;stroke-width:1px;stroke-linecap:butt;stroke-linejoin:miter;stroke-opacity:1"/>
      <path inkscape:connector-curvature="0" id="path4164" d="m 267.14286,638.07647 c 4.75149,1.25153 9.21969,3.28768 13.92857,5 4.51,1.64 18.05935,5.40441 12.85714,-5 -5.52608,-11.05217 -24.10198,1.53356 -26.78571,0 z" style="fill:#000000;stroke:#000000;stroke-width:1px;stroke-linecap:butt;stroke-linejoin:miter;stroke-opacity:1"/>
      <path inkscape:connector-curvature="0" id="path4166" d="m 352.14286,603.07647 c 8.35483,0.42138 22.6941,-22.17586 31.78571,-15.35715 11.48378,8.61284 -4.81088,19.97892 -7.5,25.35715 -1.91644,3.83288 15.931,19.17736 7.85714,23.21428 -13.96453,6.98227 -28.05213,-2.76066 -30.71428,-16.07143 -1.15436,-5.77178 0.58931,-11.76184 -1.42857,-17.14285 z" style="fill:#000000;stroke:#000000;stroke-width:1px;stroke-linecap:butt;stroke-linejoin:miter;stroke-opacity:1"/>
      <path inkscape:connector-curvature="0" id="path4172" d="m 54.548237,559.40774 c -34.673823,6.9444 -73.557415,2.96156 -106.066017,15.15229" style="fill:none;stroke:#000000;stroke-width:1px;stroke-linecap:butt;stroke-linejoin:miter;stroke-opacity:1"/>
      <path inkscape:connector-curvature="0" id="path4174" d="m 68.690373,573.54988 c -31.035256,3.06034 -62.8668185,-2.74825 -92.934034,1.01015" style="fill:none;stroke:#000000;stroke-width:1px;stroke-linecap:butt;stroke-linejoin:miter;stroke-opacity:1"/>
      <path inkscape:connector-curvature="0" id="path4176" d="m 79.802051,583.6514 c -34.615327,-2.67595 -62.798339,8.1536 -90.913729,20.20305" style="fill:none;stroke:#000000;stroke-width:1px;stroke-linecap:butt;stroke-linejoin:miter;stroke-opacity:1"/>
      <path inkscape:connector-curvature="0" id="path4180" d="M 12.121831,511.93057 C -1.6451108,507.32376 -3.8644233,495.57549 -12.121831,485.6666" style="fill:none;stroke:#000000;stroke-width:1px;stroke-linecap:butt;stroke-linejoin:miter;stroke-opacity:1"/>
      <path inkscape:connector-curvature="0" id="path4182" d="m 349.51278,513.95088 c 69.43817,-18.0019 135.91832,-45.93181 194.95944,-82.83251" style="fill:none;stroke:#000000;stroke-width:1px;stroke-linecap:butt;stroke-linejoin:miter;stroke-opacity:1"/>
      <path inkscape:connector-curvature="0" id="path4184" d="m 371.73614,524.0524 c 26.96699,-2.8927 77.91297,-5.1445 91.92388,-15.15229" style="fill:none;stroke:#000000;stroke-width:1px;stroke-linecap:butt;stroke-linejoin:miter;stroke-opacity:1"/>
      <path inkscape:connector-curvature="0" id="path4186" d="m 361.63461,543.2453 c 29.09795,-1.83574 58.61538,-1.01015 87.88327,-1.01015" style="fill:none;stroke:#000000;stroke-width:1px;stroke-linecap:butt;stroke-linejoin:miter;stroke-opacity:1"/>
      <path inkscape:connector-curvature="0" id="path4188" d="m 351.53309,555.36713 c 30.62522,-0.11074 62.75233,-0.79933 91.92388,-4.04061" style="fill:none;stroke:#000000;stroke-width:1px;stroke-linecap:butt;stroke-linejoin:miter;stroke-opacity:1"/>
      <path inkscape:connector-curvature="0" id="path4190" d="m 460.62956,396.77318 c -23.49412,30.79622 32.83398,24.62548 0,0 z" style="fill:#000000;stroke:#000000;stroke-width:1px;stroke-linecap:butt;stroke-linejoin:miter;stroke-opacity:1"/>
      <path inkscape:connector-curvature="0" id="path4192" d="m 439.41636,440.20974 c -22.74498,17.21633 18.17938,15.14948 0,0 z" style="fill:#000000;stroke:#000000;stroke-width:1px;stroke-linecap:butt;stroke-linejoin:miter;stroke-opacity:1"/>
      <path inkscape:connector-curvature="0" id="path4194" d="m 448.50773,469.50416 c -73.58985,16.13139 54.28059,23.26311 0,0 z" style="fill:#000000;stroke:#000000;stroke-width:1px;stroke-linecap:butt;stroke-linejoin:miter;stroke-opacity:1"/>
      <path inkscape:connector-curvature="0" id="path4196" d="m 380.82751,484.65645 c -44.41055,-9.80161 4.5277,36.22157 0,0 z" style="fill:#000000;stroke:#000000;stroke-width:1px;stroke-linecap:butt;stroke-linejoin:miter;stroke-opacity:1"/>
      <path inkscape:connector-curvature="0" id="path4198" d="m 335.37065,514.96103 c -33.12757,-1.91203 11.02412,19.29221 0,0 z" style="fill:#000000;stroke:#000000;stroke-width:1px;stroke-linecap:butt;stroke-linejoin:miter;stroke-opacity:1"/>
      <path inkscape:connector-curvature="0" id="path4200" d="m 305.06607,516.98133 c 0.80673,27.91349 24.58591,24.58591 0,0 z" style="fill:#000000;stroke:#000000;stroke-width:1px;stroke-linecap:butt;stroke-linejoin:miter;stroke-opacity:1"/>
      <path inkscape:connector-curvature="0" id="path4202" d="m 287.89348,529.10316 c 2.44222,50.20887 44.07319,-16.52744 0,0 z" style="fill:#000000;stroke:#000000;stroke-width:1px;stroke-linecap:butt;stroke-linejoin:miter;stroke-opacity:1"/>
      <path inkscape:connector-curvature="0" id="path3135" d="m 506.42857,661.6479 c -1.16077,-8.56073 4.71212,-13.49675 8.57143,-19.28572 7.11419,-10.67129 29.5036,11.36796 31.42857,17.14286 6.55367,19.66101 -24.12621,23.25242 -31.42857,37.85714 -2.87507,5.75014 2.62799,10.22915 -1.42857,14.28572 C 439.34758,785.87174 374.8976,671.66253 450,660.93361 c 17.9233,-2.56047 37.58699,0.71429 56.42857,0.71429 z" style="fill:#000000;stroke:#000000;stroke-width:1px;stroke-linecap:butt;stroke-linejoin:miter;stroke-opacity:1"/>
      <path inkscape:connector-curvature="0" id="path3137" d="m 548.57143,575.21933 c -29.9787,36.76309 23.65435,61.7942 48.57142,28.57143 6.0761,-8.10146 4.01703,-21.87417 11.42858,-29.28572 5.55793,-5.55793 16.38273,-4.90833 20.71428,-13.57143 6.47111,-12.94221 -54.55341,-8.72779 -61.42857,-3.57142 -11.54155,8.65616 -15.06726,19.82474 -22.14286,22.85714" style="fill:#000000;stroke:#000000;stroke-width:1px;stroke-linecap:butt;stroke-linejoin:miter;stroke-opacity:1"/>
      <path inkscape:connector-curvature="0" id="path3139" d="m 643.57142,539.50504 c -29.6563,41.13484 59.23659,0 -5.71428,0" style="fill:#000000;stroke:#000000;stroke-width:1px;stroke-linecap:butt;stroke-linejoin:miter;stroke-opacity:1"/>
      <path inkscape:connector-curvature="0" id="path3141" d="m 645,658.79076 c -48.85461,49.63081 -9.00534,83.01066 23.57142,17.85714 10.19665,-20.39328 -22.59843,-29.53305 -24.28571,-9.28572" style="fill:#000000;stroke:#000000;stroke-width:1px;stroke-linecap:butt;stroke-linejoin:miter;stroke-opacity:1"/>
      <path inkscape:connector-curvature="0" id="path3143" d="m 700,672.36218 c -38.18961,17.23963 12.14285,43.18615 12.14285,6.42858 0,-6.30897 -1.66954,-5.74441 -7.14285,-6.42858" style="fill:#000000;stroke:#000000;stroke-width:1px;stroke-linecap:butt;stroke-linejoin:miter;stroke-opacity:1"/>
      <path inkscape:connector-curvature="0" id="path3145" d="m 730.71428,685.21933 c -51.96259,45.10705 45.12497,50.12497 -2.85714,2.14285" style="fill:#000000;stroke:#000000;stroke-width:1px;stroke-linecap:butt;stroke-linejoin:miter;stroke-opacity:1"/>
      <path inkscape:connector-curvature="0" id="path3147" d="m 761.42857,705.93361 c -40.87338,29.52218 24.17663,29.58011 8.57143,3.57143 -2.75541,-4.59234 -3.23135,-4.23894 -8.57143,-3.57143 z" style="fill:#000000;stroke:#000000;stroke-width:1px;stroke-linecap:butt;stroke-linejoin:miter;stroke-opacity:1"/>
      <path inkscape:connector-curvature="0" id="path3149" d="m 663.57142,720.21933 c -10.56092,30.71483 47.96447,11.5766 19.28572,-0.71429" style="fill:#000000;stroke:#000000;stroke-width:1px;stroke-linecap:butt;stroke-linejoin:miter;stroke-opacity:1"/>
      <path inkscape:connector-curvature="0" id="path3151" d="m 727.85714,620.93361 c -7.13464,-2.78847 -13.50516,-7.14285 -21.42857,-7.14285 -87.35315,0 62.45076,54.02536 16.42857,1.42857" style="fill:#000000;stroke:#000000;stroke-width:1px;stroke-linecap:butt;stroke-linejoin:miter;stroke-opacity:1"/>
      <path inkscape:connector-curvature="0" id="path3153" d="m 770,613.07647 c -7.45538,-0.80162 -12.87827,3.59255 -17.85715,8.57143 -7.46887,7.46887 2.29603,46.8537 12.14286,43.57143 14.27903,-4.75968 0.71369,-23.56904 2.85714,-32.14286 1.70439,-6.81756 12.73042,-1.76268 14.28572,-6.42857 1.52455,-4.57366 -3.93409,-14.94504 -11.42857,-13.57143 z" style="fill:#000000;stroke:#000000;stroke-width:1px;stroke-linecap:butt;stroke-linejoin:miter;stroke-opacity:1"/>
      <path inkscape:connector-curvature="0" id="path3155" d="m 772.14285,573.79076 c -49.02136,-4.33179 16.20121,37.80282 0,0 z" style="fill:#000000;stroke:#000000;stroke-width:1px;stroke-linecap:butt;stroke-linejoin:miter;stroke-opacity:1"/>
      <path inkscape:connector-curvature="0" id="path3157" d="m 773.57142,548.07647 c -38.25797,3.21482 4.59686,41.37166 0,0 z" style="fill:#000000;stroke:#000000;stroke-width:1px;stroke-linecap:butt;stroke-linejoin:miter;stroke-opacity:1"/>
      <path inkscape:connector-curvature="0" id="path3159" d="m 747.14285,550.21933 c -37.80254,2.30989 -10.69309,28.89679 -7.14285,23.57143 4.20494,-6.30742 3.85165,-17.81183 7.14285,-23.57143 z" style="fill:#000000;stroke:#000000;stroke-width:1px;stroke-linecap:butt;stroke-linejoin:miter;stroke-opacity:1"/>
      <path inkscape:connector-curvature="0" id="path3161" d="m 715,558.79076 c -26.5469,4.45448 0.80689,34.72217 5.71428,20 2.74089,-8.22268 16.79818,-46.31368 0,-40.71429 -11.40712,3.80238 7.00263,17.08088 -5.71428,20.71429 z" style="fill:#000000;stroke:#000000;stroke-width:1px;stroke-linecap:butt;stroke-linejoin:miter;stroke-opacity:1"/>
      <path inkscape:connector-curvature="0" id="path3163" d="m 705,492.36219 c -52.54934,48.69246 31.14003,22.24288 0,0 z" style="fill:#000000;stroke:#000000;stroke-width:1px;stroke-linecap:butt;stroke-linejoin:miter;stroke-opacity:1"/>
      <path inkscape:connector-curvature="0" id="path3165" d="M 676.42857,455.21933 C 631.58703,484.63657 710.66219,487.3101 690,466.6479 c -6.37321,-6.37321 -3.75449,-8.62373 -13.57143,-11.42857 z" style="fill:#000000;stroke:#000000;stroke-width:1px;stroke-linecap:butt;stroke-linejoin:miter;stroke-opacity:1"/>
      <path inkscape:connector-curvature="0" id="path3961" d="m 105.56094,483.14123 c -11.842868,-11.92735 8.99824,-25.53322 14.14214,-10.10153 1.38423,4.1527 -9.42809,12.12183 -5.05077,12.12183 21.32877,0 -4.12499,8.75506 -4.54568,9.59645 -1.52683,3.05365 -5.05077,17.06222 -5.05077,20.20305 0,8.31639 -1.05233,20.11868 2.52539,27.27412 0.90312,1.80625 8.01625,7.86117 3.53553,10.10153 -14.204774,7.10238 -9.21446,-11.6783 -12.121831,-13.13199 -0.718027,-0.35901 -11.873992,0.48628 -12.121831,-0.50507 -0.651559,-2.60624 -1.767143,-11.36609 -1.010152,-13.63706 0.899954,-2.69986 8.195888,-0.0573 10.101525,-1.01016 10.909309,-5.45465 9.596449,-32.43653 9.596449,-40.91117 z" style="fill:#000000;stroke:none"/>
      <path inkscape:connector-curvature="0" id="path3963" d="m 507.09657,592.74278 c -129.54688,56.88139 -41.10171,82.20342 0,0 z" style="fill:#000000;stroke:none"/>
      <path inkscape:connector-curvature="0" id="path3965" d="m 317.94551,406.87471 c -3.01872,14.93432 10.85914,29.89061 10.85914,43.18402 0,0.67344 -0.13207,-1.35995 0,-2.0203 0.57973,-2.89863 4.67714,-8.22782 6.81853,-10.10153 3.88807,-3.40206 10.07177,-6.72937 14.64721,-9.34391 1.04647,-0.59798 4.07455,0.32041 3.53554,-0.75762 -2.20467,-4.40932 -14.40948,-5.66829 -18.43529,-6.81852 -5.68259,-1.6236 -11.86781,-10.96653 -17.42513,-14.14214 z" style="fill:#000000;stroke:none"/>
      <path inkscape:connector-curvature="0" id="path3967" d="m -3.5355339,364.4483 c -14.6333191,11.24476 -17.2981741,32.38905 -6.5659911,48.48733 2.7471266,4.12069 15.3355629,8.80083 20.20305,5.55583 3.571429,-2.38095 11.616755,-9.84816 11.616755,-5.55583 0,6.76078 -26.8685063,10.70865 -32.324882,7.07106 -6.708039,-4.47202 -2.833322,-18.33671 -7.576144,-20.70812 -0.809292,-0.40465 -7.112989,-3.76712 -7.576144,-3.53554 -2.318809,1.15941 2.10619,12.96022 1.010153,15.15229 -2.619649,5.2393 -12.853978,1.33909 -14.142136,-2.52538 -1.486591,-4.45977 2.020305,-9.24906 2.020305,-13.13198 0,-6.43954 -8.178765,-18.49274 -5.050762,-24.74874 1.207468,-2.41494 5.742214,-2.22559 7.576144,-3.53554 0.994013,-0.71 3.944439,-5.2431 5.555839,-2.0203 2.673726,5.34745 -4.789031,14.6656 -3.535534,17.17259 2.729118,5.45824 21.940913,-41.64718 28.7893471,-17.67767 z" style="fill:#000000;stroke:none"/>
      <path inkscape:connector-curvature="0" id="path3969" d="m -3.5355339,289.19194 c -13.3543141,-10.18064 7.430262,-23.85832 -12.6269071,-17.17259 -2.880695,0.96023 -8.130962,8.73552 -9.091372,11.61675 -1.030508,3.09152 5.784765,17.3543 7.071067,21.2132 1.592155,4.77647 -3.726504,21.42261 -1.010152,23.23351 14.7333634,9.82224 19.75070061,-31.72753 15.6573641,-38.89087 z" style="fill:#000000;fill-opacity:1;stroke:none"/>
      <path inkscape:connector-curvature="0" id="path3971" d="m 171.22086,662.4433 c -1.3428,5.13906 2.52538,11.67951 2.52538,15.65737 0,5.52165 -2.35203,-21.63161 6.56599,-17.1726 5.61384,2.80692 -1.68588,13.80427 2.0203,15.65737 6.97612,3.48806 6.52211,-7.5542 9.59645,-9.09137 3.3671,-1.68356 1.846,9.03327 5.05077,10.10152 4.95687,1.65229 14.14213,-8.32213 14.14213,-12.62691 0,-11.04085 -34.74357,-11.55092 -39.90102,-2.52538 z" style="fill:#000000;fill-opacity:1;stroke:none"/>
    </g>
  </g>
  <metadata>
    <rdf:RDF>
      <cc:Work>
        <dc:format>image/svg+xml</dc:format>
        <dc:type rdf:resource="http://purl.org/dc/dcmitype/StillImage"/>
        <cc:license rdf:resource="http://creativecommons.org/licenses/publicdomain/"/>
        <dc:publisher>
          <cc:Agent rdf:about="http://openclipart.org/">
            <dc:title>Open Clip Art Library</dc:title>
          </cc:Agent>
        </dc:publisher>
        <dc:title>snow leopard</dc:title>
        <dc:date>2013-04-03T22:41:59</dc:date>
        <dc:description>snow leopard staring at something</dc:description>
        <dc:source>http://openclipart.org/detail/176733/snow-leopard-by-stilg4r-176733</dc:source>
        <dc:creator>
          <cc:Agent>
            <dc:title>stilg4r</dc:title>
          </cc:Agent>
        </dc:creator>
        <dc:subject>
          <rdf:Bag>
            <rdf:li>animal</rdf:li>
            <rdf:li>cat</rdf:li>
            <rdf:li>clip art</rdf:li>
            <rdf:li>clipart</rdf:li>
            <rdf:li>clipart_issue</rdf:li>
            <rdf:li>leopard</rdf:li>
            <rdf:li>snow</rdf:li>
          </rdf:Bag>
        </dc:subject>
      </cc:Work>
      <cc:License rdf:about="http://creativecommons.org/licenses/publicdomain/">
        <cc:permits rdf:resource="http://creativecommons.org/ns#Reproduction"/>
        <cc:permits rdf:resource="http://creativecommons.org/ns#Distribution"/>
        <cc:permits rdf:resource="http://creativecommons.org/ns#DerivativeWorks"/>
      </cc:License>
    </rdf:RDF>
  </metadata>
</svg>
